<svg
    xmlns="http://www.w3.org/2000/svg"
    viewBox="0 0 64 64"
    x="0px"
    y="0px"
>
    <g>
        <path d="M30,23A11,11,0,1,0,41,34,11.0125,11.0125,0,0,0,30,23Zm0,20a9,9,0,1,1,9-9A9.01,9.01,0,0,1,30,43Zm0-12a3,3,0,1,0,3,3A3.0033,3.0033,0,0,0,30,31Zm0,4a1,1,0,1,1,1-1A1.0013,1.0013,0,0,1,30,35Zm-1-7a1,1,0,1,1,1,1A1,1,0,0,1,29,28Zm-2.5355,1.05a1,1,0,1,1-1.4142,0A1,1,0,0,1,26.4645,29.05ZM25,34a1,1,0,1,1-1-1A1,1,0,0,1,25,34Zm1.4645,3.5355a1,1,0,1,1-1.4142,0A1,1,0,0,1,26.4645,37.5355ZM31,40a1,1,0,1,1-1-1A1,1,0,0,1,31,40Zm3.95-2.4645a1,1,0,1,1-1.4143,0A1,1,0,0,1,34.95,37.5355ZM36,33a1,1,0,1,1-1,1A1,1,0,0,1,36,33Zm-2.4645-2.5355a1,1,0,1,1,1.4143,0A1,1,0,0,1,33.5355,30.4645Zm3.9518,16.0233c1.4165,5.2856-1.1894,8.33-1.3013,8.457A1,1,0,0,1,34.68,53.6294c.0952-.1128,1.998-2.4346.876-6.624a1,1,0,0,1,1.9316-.5176Zm11.6973-2.0523a1,1,0,0,1-.9336,1.0625c-.022.0015-.044.002-.0655.002a1,1,0,0,1-.9965-.9287c-.0113-.1392-.3033-3.1318-4.0645-5.3032a1,1,0,0,1,1-1.7325C48.8638,40.272,49.1733,44.2671,49.1846,44.4355ZM22.5127,21.5122c-1.4165-5.2856,1.1894-8.33,1.3013-8.457A1,1,0,0,1,25.32,14.3706c-.0952.1128-1.998,2.4346-.876,6.624a1,1,0,1,1-1.9316.5176ZM10.8154,23.5645a1,1,0,0,1,1.9956-.1358c.0113.1392.3033,3.1318,4.0645,5.3032a1,1,0,0,1-1,1.7325C11.1362,27.728,10.8267,23.7329,10.8154,23.5645Zm7.4038,16.6982a.9992.9992,0,0,1-.707,1.2246,11.8013,11.8013,0,0,1-3.062.42,8.4845,8.4845,0,0,1-5.395-1.7217A1,1,0,0,1,10.3706,38.68c.1128.0947,2.437,1.9971,6.624.876A.9973.9973,0,0,1,18.2192,40.2627Zm8.2452,7.8618c-2.7364,4.7393-6.7315,5.0488-6.9,5.06-.022.0014-.044.0019-.0655.0019a1,1,0,0,1-.07-1.9975c.14-.0113,3.1318-.3037,5.3032-4.0645a1,1,0,0,1,1.7325,1ZM59.707,19.293l-15-15A1,1,0,0,0,44,4H30a1,1,0,0,0-1,1V8.0253A25.9969,25.9969,0,1,0,55.9747,35H59a1,1,0,0,0,1-1V20A1,1,0,0,0,59.707,19.293ZM30,58a23.9977,23.9977,0,0,1-1-47.9746V17a1,1,0,0,0,1,1,15.9281,15.9281,0,0,1,4.3685.6215,12.1359,12.1359,0,0,0-.8348,1.2589,1,1,0,1,0,1.7324.999,9.9838,9.9838,0,0,1,1.1162-1.5427,16.0931,16.0931,0,0,1,7.5907,6.89,11.1863,11.1863,0,0,0-1.4852.2883,1,1,0,1,0,.5244,1.93,9.8269,9.8269,0,0,1,1.86-.3081A15.8927,15.8927,0,0,1,46,34a1,1,0,0,0,1,1h6.9746A24.0266,24.0266,0,0,1,30,58ZM58,33H47.9727A18.0265,18.0265,0,0,0,31,16.0273V6H43.5859L58,20.4141ZM36,8a3,3,0,1,0,3,3A3.0033,3.0033,0,0,0,36,8Zm0,4a1,1,0,1,1,1-1A1.0013,1.0013,0,0,1,36,12ZM53,31a3,3,0,1,0-3-3A3.0033,3.0033,0,0,0,53,31Zm0-4a1,1,0,1,1-1,1A1.0013,1.0013,0,0,1,53,27Z" />
    </g>
</svg>