<svg
  xmlns="http://www.w3.org/2000/svg"
  viewBox="0 0 64 64"
  x="0px"
  y="0px"
>
    <g>
      <path d="M47,54H46V51a1,1,0,0,0-1-1H44V47a1,1,0,0,0-1-1H42V43a1,1,0,0,0-1-1H35.9556l-.909-20h.1878a3.0044,3.0044,0,0,0,2.9765-2.6279l1.0787-8.628A6,6,0,0,0,33.3359,4H30.6641A6,6,0,0,0,24.71,10.7441l1.0787,8.628A3.0044,3.0044,0,0,0,28.7656,22h.1878l-.909,20H23a1,1,0,0,0-1,1v3H21a1,1,0,0,0-1,1v3H19a1,1,0,0,0-1,1v3H17a1,1,0,0,0-1,1v4a1,1,0,0,0,1,1H47a1,1,0,0,0,1-1V55A1,1,0,0,0,47,54ZM33.3359,6c.0956,0,.1871.0234.2817.03L33.1182,10H30.8818l-.4994-3.97c.0946-.0068.1861-.03.2817-.03ZM27.7734,19.124l-1.0786-8.6279a3.8989,3.8989,0,0,1,1.7544-3.809l.5586,4.4379A1,1,0,0,0,30,12h4a1,1,0,0,0,.9922-.875l.5586-4.4379a3.8989,3.8989,0,0,1,1.7544,3.809L36.2266,19.124a1.0014,1.0014,0,0,1-.9922.876H28.7656A1.0014,1.0014,0,0,1,27.7734,19.124ZM30.9556,22h2.0888l.9092,20H30.0464ZM24,44H40v2H24Zm-2,4H42v2H22Zm-2,4H44v2H20Zm26,6H18V56H46Z" />
    </g>
</svg>