<svg
  xmlns="http://www.w3.org/2000/svg"
  viewBox="0 0 64 64"
  x="0px"
  y="0px"
>
    <g>
      <path d="M59,18a1,1,0,0,0,1-1V13a1,1,0,0,0-1-1H5a1,1,0,0,0-1,1v4a1,1,0,0,0,1,1h6v8H7a3.0033,3.0033,0,0,0-3,3V43a3.0033,3.0033,0,0,0,3,3H17a3.0033,3.0033,0,0,0,3-3V29a3.0033,3.0033,0,0,0-3-3H13V18h8v3a1.0007,1.0007,0,0,0,.8037.98L31,23.8193V26H27a3.0033,3.0033,0,0,0-3,3V43a3.0033,3.0033,0,0,0,3,3H37a3.0033,3.0033,0,0,0,3-3V29a3.0033,3.0033,0,0,0-3-3H33V23a1.0007,1.0007,0,0,0-.8037-.98L23,20.1807V18H51v8H47a3.0033,3.0033,0,0,0-3,3V49a3.0033,3.0033,0,0,0,3,3H57a3.0033,3.0033,0,0,0,3-3V29a3.0033,3.0033,0,0,0-3-3H53V18ZM18,29V43a1.0006,1.0006,0,0,1-1,1H7a1.0006,1.0006,0,0,1-1-1V29a1.0006,1.0006,0,0,1,1-1H17A1.0006,1.0006,0,0,1,18,29Zm20,0V43a1.0006,1.0006,0,0,1-1,1H27a1.0006,1.0006,0,0,1-1-1V29a1.0006,1.0006,0,0,1,1-1H37A1.0006,1.0006,0,0,1,38,29Zm20,0V49a1.0006,1.0006,0,0,1-1,1H47a1.0006,1.0006,0,0,1-1-1V29a1.0006,1.0006,0,0,1,1-1H57A1.0006,1.0006,0,0,1,58,29ZM6,14H58v2H6ZM49,32h6a1,1,0,0,1,0,2H49a1,1,0,0,1,0-2Zm7,7a1,1,0,0,1-1,1H49a1,1,0,0,1,0-2h6A1,1,0,0,1,56,39ZM29,32h6a1,1,0,0,1,0,2H29a1,1,0,0,1,0-2Zm7,7a1,1,0,0,1-1,1H29a1,1,0,0,1,0-2h6A1,1,0,0,1,36,39ZM9,32h6a1,1,0,0,1,0,2H9a1,1,0,0,1,0-2Zm7,7a1,1,0,0,1-1,1H9a1,1,0,0,1,0-2h6A1,1,0,0,1,16,39Zm40,6a1,1,0,0,1-1,1H49a1,1,0,0,1,0-2h6A1,1,0,0,1,56,45Z" />
    </g>
</svg>