<svg
  xmlns="http://www.w3.org/2000/svg"
  viewBox="0 0 64 64"
  x="0px"
  y="0px"
>
    <g>
      <path d="M42,4H22a1,1,0,0,0-1,1V33a1,1,0,0,0,1,1h5a.9993.9993,0,0,0,.707-.293L29,32.4141V46.6807A6.9623,6.9623,0,0,0,25.6846,50H24a1,1,0,0,0-1,1v4a1,1,0,0,0,1,1h1.6807a6.9917,6.9917,0,0,0,12.6386,0H40a1,1,0,0,0,1-1V51a1,1,0,0,0-1-1H38.3154A6.9623,6.9623,0,0,0,35,46.6807V32.4141l1.293,1.2929A.9993.9993,0,0,0,37,34h5a1,1,0,0,0,1-1V5A1,1,0,0,0,42,4ZM23,10H41v2H23ZM41,6V8H23V6ZM36.7051,51.3345A1,1,0,0,0,37.6475,52H39v2H37.6514a.9988.9988,0,0,0-.9424.6665,4.9928,4.9928,0,0,1-9.418,0A.9988.9988,0,0,0,26.3486,54H25V52h1.3525a1,1,0,0,0,.9424-.6655A4.98,4.98,0,0,1,30.334,48.291.9993.9993,0,0,0,31,47.3486V32h2V47.3486a.9993.9993,0,0,0,.666.9424A4.98,4.98,0,0,1,36.7051,51.3345ZM37.4141,32,35.707,30.293A.9993.9993,0,0,0,35,30H29a.9993.9993,0,0,0-.707.293L26.5859,32H23V14H41V32ZM32,19a3,3,0,1,0,3,3A3.0033,3.0033,0,0,0,32,19Zm0,4a1,1,0,1,1,1-1A1.0009,1.0009,0,0,1,32,23Zm-5-1a1,1,0,1,1-1-1A1,1,0,0,1,27,22Zm12,0a1,1,0,1,1-1-1A1,1,0,0,1,39,22ZM29,53a3,3,0,1,0,3-3A3.0033,3.0033,0,0,0,29,53Zm4,0a1,1,0,1,1-1-1A1.0009,1.0009,0,0,1,33,53Z" />
    </g>
</svg>