<svg
  xmlns="http://www.w3.org/2000/svg"
  viewBox="0 0 64 64"
  x="0px"
  y="0px"
>
    <g>
      <path d="M32,4A28,28,0,1,0,60,32,28.0314,28.0314,0,0,0,32,4Zm0,54A26,26,0,1,1,58,32,26.03,26.03,0,0,1,32,58ZM11.624,28H20a1,1,0,0,0,.8-.4l1.8-2.4A3.0146,3.0146,0,0,1,25,24H39a3.016,3.016,0,0,1,2.4,1.2l1.8,2.4a1,1,0,0,0,.8.4h8.376a1,1,0,0,0,.9717-1.2378,21.9746,21.9746,0,0,0-42.6949,0A1,1,0,0,0,11.624,28ZM32,12A19.929,19.929,0,0,1,51.06,26H44.5L43,24a5.0241,5.0241,0,0,0-4-2H25a5.0234,5.0234,0,0,0-4,2l-1.5,2H12.94A19.93,19.93,0,0,1,32,12ZM12,34h-.7612a1,1,0,0,0-.99,1.1421A21.9737,21.9737,0,0,0,27.81,53.5952,1,1,0,0,0,29,52.6133V51A17.019,17.019,0,0,0,12,34ZM27,51.3638A19.9784,19.9784,0,0,1,12.4272,36.0059,15.0183,15.0183,0,0,1,27,51ZM53.5176,34.3452A1.0012,1.0012,0,0,0,52.7617,34H52A17.019,17.019,0,0,0,35,51v1.6133a.9993.9993,0,0,0,1,1,.9892.9892,0,0,0,.19-.0181A21.9759,21.9759,0,0,0,53.752,35.1421,1.0021,1.0021,0,0,0,53.5176,34.3452ZM37,51.3638V51A15.0187,15.0187,0,0,1,51.5732,36.0059,19.98,19.98,0,0,1,37,51.3638ZM38,34a6,6,0,1,0-6,6A6.0066,6.0066,0,0,0,38,34Zm-6,4a4,4,0,1,1,4-4A4.0045,4.0045,0,0,1,32,38Z" />
    </g>
</svg>