<svg
  xmlns="http://www.w3.org/2000/svg"
  viewBox="0 0 64 64"
  x="0px"
  y="0px"
>
    <g>
      <path d="M29,53a3,3,0,1,0,3-3A3.0033,3.0033,0,0,0,29,53Zm3-1a1,1,0,1,1-1,1A1.0006,1.0006,0,0,1,32,52ZM42,21a3.0033,3.0033,0,0,0-3-3V16a3,3,0,0,0,0-6V5a1,1,0,0,0-1-1H26a1,1,0,0,0-1,1v5a3,3,0,0,0,0,6v2a3,3,0,0,0,0,6v2a3,3,0,0,0,0,6v2a3,3,0,0,0,0,6v5a1,1,0,0,0,1,1h3v.6807a7,7,0,1,0,6,0V46h3a1,1,0,0,0,1-1V40a3,3,0,0,0,0-6V32a3,3,0,0,0,0-6V24A3.0033,3.0033,0,0,0,42,21ZM27,6H37v4H27Zm-3,7a1.0006,1.0006,0,0,1,1-1H39a1,1,0,0,1,0,2H25A1.0006,1.0006,0,0,1,24,13Zm3,3H37v2H27Zm-3,5a1.0006,1.0006,0,0,1,1-1H39a1,1,0,0,1,0,2H25A1.0006,1.0006,0,0,1,24,21ZM37,44H34a1,1,0,0,0-1,1v2.3486a.9983.9983,0,0,0,.666.9424,5,5,0,1,1-3.332,0A.9983.9983,0,0,0,31,47.3486V45a1,1,0,0,0-1-1H27V40H37Zm3-7a1.0006,1.0006,0,0,1-1,1H25a1,1,0,0,1,0-2H39A1.0006,1.0006,0,0,1,40,37Zm-3-3H27V32H37Zm3-5a1.0006,1.0006,0,0,1-1,1H25a1,1,0,0,1,0-2H39A1.0006,1.0006,0,0,1,40,29Zm-3-3H27V24H37Z" />
    </g>
</svg>